<svg id="Warstwa_1" data-name="Warstwa 1" xmlns="http://www.w3.org/2000/svg" viewBox="0 0 33.56 19.58"><defs><style>.cls-1{fill:none}.cls-2{clip-path:url(#clip-path)}.cls-3{fill:#fff}.cls-4{fill:#be1637}.cls-5{fill:#293270}</style><clipPath id="clip-path"><path class="cls-1" d="M0 0h33.56v19.58H0z"/></clipPath></defs><title>ENG</title><g class="cls-2" id="UNITED_KINGDOM" data-name="UNITED KINGDOM"><path class="cls-3" d="M0 0h33.56v19.58H0z"/><path class="cls-4" d="M22.47 7.08L33.56.87V0h-.76L20.15 7.08h2.32zm-.52 5.81l11.61 6.5v-1.3l-9.29-5.2h-2.32zM0 1.49l9.94 5.59h2.32L0 .19v1.3zm11.73 11.4L0 19.46v.12h2.12l11.93-6.69h-2.32z"/><path class="cls-5" d="M31.27 0H19.52v6.58L31.27 0zM14.33 0H2.62l11.71 6.58V0zm19.23 7.08V2.59l-7.97 4.49h7.97zm0 10.26v-4.45h-7.97l7.97 4.45zM3.29 19.58h11.04v-6.19L3.29 19.58zm16.23 0h11.07l-11.07-6.19v6.19zM0 12.89v4.65l8.25-4.65H0zm0-5.81h8.25L0 2.43v4.65z"/><path class="cls-4" d="M15.36 0v8.24H0v3.49h15.36v7.85h3.12v-7.85h15.08V8.24H18.48V0h-3.12z"/></g></svg>