<svg xmlns="http://www.w3.org/2000/svg" viewBox="0 0 47.1 43"><clipPath id="a"/><path clip-path="url(#a)" fill="#010202" d="M7.1 36.7c1.9 0 2.8-.7 3.6-1.3.7-.5 1.3-.9 2.6-.9s1.8.4 2.6.9c.8.6 1.8 1.3 3.7 1.3s2.9-.7 3.7-1.3c.7-.5 1.3-.9 2.6-.9s1.8.4 2.6.9c.8.6 1.8 1.3 3.7 1.3 1.9 0 2.8-.7 3.7-1.3.7-.5 1.3-.9 2.6-.9s1.8.4 2.6.9c.8.6 1.8 1.3 3.7 1.3.5 0 .9-.4.9-.9s-.4-.9-.9-.9c-1.3 0-1.8-.4-2.6-.9-.8-.6-1.8-1.3-3.7-1.3h-.1c-.1 0-.4 0-.4-.3V17.5c0-.3.3-.3.3-.3h2.3c.6 0 1-.4 1.1-.7s.1-.9-.4-1.3l-3.6-2.8c-.2-.2-.2-.4-.2-.5V5.7c0-.8-.6-1.4-1.4-1.4h-4.3c-.8 0-1.4.6-1.4 1.4v.7c0 .3-.2.1-.2.1l-8-6.2c-.5-.4-1.4-.4-1.9 0L.8 15.2c-.5.4-.6.9-.4 1.3s.5.7 1.1.7h2.2s.3 0 .3.4v15.7c0 .2-.1.2-.1.1-.7-.4-1.6-.8-2.9-.8-.6 0-1 .4-1 .9s.4.9.9.9c1.3 0 1.8.4 2.6.9.8.7 1.8 1.4 3.6 1.4M31.8 6.3c0-.3.2-.2.2-.2h3s.2 0 .2.2v3.8c0 .3-.2.1-.2.1l-3.2-2.6s-.1 0-.1-.2V6.3zm-9.7 27.6c-.7.5-1.3.9-2.6.9-.7 0-1.2-.1-1.6-.3-.1 0-.2-.1-.2-.3v-5.1s0-1.6.9-2.5c.5-.5 1.2-.7 2.1-.7 1 0 1.7.3 2.3.8.9.9.9 2.4.9 2.4v3.6c0 .3-.2.3-.3.3-.6.3-1 .6-1.5.9m-18-18.6c-.4 0-.1-.3-.1-.3L20.6 2.1s.1-.1.3-.1c.1 0 .3.2.3.2L37.7 15s.4.3-.1.3h-.3c-.8 0-1.4.6-1.4 1.4v16.2c0 .2-.2.3-.2.3-.4.2-.7.5-1 .7-.7.5-1.3.9-2.6.9s-1.8-.4-2.6-.9-1.7-1.2-3.4-1.3c-.1 0-.3 0-.3-.3v-3.2c0-.1 0-2.3-1.5-3.8-.9-.9-2.1-1.4-3.6-1.4-1.4 0-2.6.4-3.4 1.3-1.5 1.5-1.4 3.7-1.4 3.8v3.8c0 .3-.2.2-.2.2-.6-.3-1.3-.5-2.3-.5-1.9 0-2.9.7-3.6 1.3-.7.5-1.3.9-2.6.9-.5 0-1.3-.2-1.3-.5V16.8c0-.8-.6-1.4-1.4-1.4h-.4zm42.1 25.8c-1.3 0-1.8-.4-2.6-.9-.8-.6-1.8-1.3-3.7-1.3-1.9 0-2.9.7-3.7 1.3-.7.5-1.3.9-2.6.9s-1.8-.4-2.6-.9c-.8-.6-1.8-1.3-3.7-1.3-1.9 0-2.9.7-3.7 1.3-.7.5-1.3.9-2.6.9s-1.8-.4-2.6-.9c-.8-.6-1.8-1.3-3.7-1.3-1.9 0-2.9.7-3.7 1.3-.7.5-1.3.9-2.6.9s-1.8-.4-2.6-.9c-.8-.6-1.8-1.3-3.7-1.3-.5 0-.9.4-.9.9s.4.9.9.9c1.3 0 1.8.4 2.6.9C6 42.3 7 43 8.9 43c1.9 0 2.8-.7 3.6-1.3.7-.5 1.3-.9 2.6-.9s1.8.4 2.6.9c.8.6 1.8 1.3 3.7 1.3s2.9-.7 3.7-1.3c.7-.5 1.3-.9 2.6-.9s1.8.4 2.6.9c.8.6 1.8 1.3 3.7 1.3 1.9 0 2.8-.7 3.7-1.3.7-.5 1.3-.9 2.6-.9s1.8.4 2.6.9c.8.6 1.8 1.3 3.7 1.3.5 0 .9-.4.9-.9s-.8-1-1.3-1"/><path clip-path="url(#a)" fill="#010202" d="M19.6 1.6L3 14.7l.3 1.4 1.2 1.3.8 17.1 1.7.7 3.6-.9 3.9-.7 2 .7.2-5 1.8-3.8 2.4-.7 2.3.6 1.2 2.4.6 2.3v2.6l1.8 1.3 2.8 1.2 2.2.4 4.1-1.2 1.1-1.7.3-15.9 2.2-1L20.8 1.2z"/><path clip-path="url(#a)" fill="#010202" d="M32.2 5.1l-1 1v2.1l1.6 2.9h3.7l-.5-5z"/></svg>